# Blender v2.80 (sub 75) OBJ File: ''
# www.blender.org
mtllib 5.mtl
o Circle.003
v 0.000000 0.112051 -0.035474
v -0.025084 0.112051 -0.025084
v 0.000000 0.112051 0.000000
v -0.035474 0.112051 0.000000
v -0.025084 0.112051 0.025084
v 0.035474 0.112051 0.000000
v 0.025084 0.112051 -0.025084
v 0.000000 0.112051 0.035475
v 0.025084 0.112051 0.025084
v 0.000000 0.083829 0.003714
v 0.000000 0.111954 0.038011
v -0.026878 0.111954 0.026878
v -0.002626 0.083829 0.002626
v 0.000000 0.083829 -0.003713
v 0.000000 0.111954 -0.038011
v 0.026878 0.111954 -0.026878
v 0.002626 0.083829 -0.002626
v 0.002626 0.083829 0.002626
v 0.026878 0.111954 0.026878
v -0.002626 0.083829 -0.002626
v -0.026878 0.111954 -0.026878
v -0.003714 0.083829 0.000000
v -0.038011 0.111954 0.000000
v 0.003714 0.083829 0.000000
v 0.038011 0.111954 0.000000
v -0.026870 0.001499 0.026870
v -0.026550 0.002813 0.026550
v -0.037548 0.002813 0.000000
v -0.037999 0.001499 0.000000
v -0.026870 0.001499 -0.026870
v -0.026550 0.002813 -0.026550
v 0.000000 0.002813 -0.037548
v 0.000000 0.001499 -0.037999
v 0.026550 0.002813 -0.026550
v 0.026870 0.001499 -0.026870
v 0.037999 0.001499 0.000000
v 0.037548 0.002813 0.000000
v 0.026550 0.002813 0.026550
v 0.026870 0.001499 0.026870
v 0.000000 0.001499 0.037999
v 0.000000 0.002813 0.037548
v 0.012648 0.005012 0.000000
v 0.008944 0.005011 0.008944
v 0.000000 0.005011 0.012648
v -0.008944 0.005011 0.008944
v -0.012648 0.005012 0.000000
v -0.008944 0.005012 -0.008944
v 0.008944 0.005012 -0.008944
v 0.000000 0.005012 -0.012648
v -0.005197 0.007026 -0.005196
v 0.000000 0.007026 -0.007349
v 0.005197 0.007026 -0.005196
v 0.007349 0.007026 0.000000
v 0.005197 0.007026 0.005197
v 0.000000 0.007025 0.007349
v -0.005197 0.007026 0.005197
v -0.007349 0.007026 0.000000
v 0.002382 0.014185 -0.002382
v 0.003369 0.014185 0.000000
v 0.002382 0.014185 0.002382
v 0.000000 0.014185 0.003369
v -0.002382 0.014185 0.002382
v -0.003369 0.014185 0.000000
v -0.002382 0.014185 -0.002382
v 0.000000 0.014185 -0.003369
v -0.003230 0.075811 0.000000
v -0.002284 0.075811 -0.002284
v 0.002284 0.075811 -0.002284
v 0.003230 0.075811 0.000000
v 0.002284 0.075811 0.002284
v 0.000000 0.075811 0.003230
v -0.002284 0.075811 0.002284
v 0.000000 0.075811 -0.003229
v 0.042508 0.130442 -0.042508
v 0.060116 0.130442 0.000000
v 0.042508 0.130442 0.042508
v 0.000000 0.130442 0.060116
v -0.042508 0.130442 0.042508
v -0.060116 0.130442 0.000000
v 0.000000 0.130442 -0.060116
v -0.042508 0.130442 -0.042508
v 0.057923 0.130406 0.000000
v 0.040958 0.130406 -0.040958
v 0.000000 0.130406 -0.057923
v -0.040958 0.130406 -0.040958
v -0.057923 0.130406 0.000000
v 0.000000 0.130406 0.057923
v -0.040958 0.130406 0.040958
v 0.040958 0.130406 0.040958
v -0.037929 0.000185 0.000000
v -0.026820 0.000185 -0.026820
v -0.010898 0.002469 -0.010898
v -0.015412 0.002469 0.000000
v 0.026820 0.000185 -0.026820
v 0.037929 0.000185 0.000000
v 0.015412 0.002469 0.000000
v 0.010898 0.002469 -0.010898
v 0.026820 0.000185 0.026820
v 0.000000 0.000185 0.037929
v 0.000000 0.002469 0.015412
v 0.010898 0.002469 0.010898
v -0.026820 0.000185 0.026820
v -0.010898 0.002469 0.010898
v 0.000000 0.000185 -0.037929
v 0.000000 0.002469 -0.015412
v 0.000000 0.002469 0.000000
v -0.006132 0.141700 0.018303
v -0.007368 0.155866 0.024803
v -0.006415 0.142368 0.016971
v -0.004935 0.142656 0.016802
v -0.004653 0.141988 0.018134
v 0.000583 0.096550 -0.006617
v -0.000371 0.110047 0.001215
v -0.001851 0.109760 0.001384
v -0.000654 0.110715 -0.000118
v -0.002133 0.110427 0.000051
v -0.008498 0.101357 0.000757
v -0.004087 0.099858 0.004538
v -0.009107 0.103905 0.006156
v 0.001581 0.101863 0.007528
v 0.002540 0.100293 0.001908
v -0.011507 0.106545 0.000545
v -0.007970 0.104128 -0.004539
v -0.003384 0.099995 -0.002071
v 0.007540 0.104907 0.005880
v -0.006960 0.108749 0.010279
v -0.003183 0.104202 0.010135
v -0.001017 0.111371 0.012582
v -0.011043 0.113240 0.000734
v -0.010603 0.110890 0.006142
v -0.008004 0.118143 0.004503
v -0.005026 0.109129 -0.007916
v -0.009466 0.111112 -0.004552
v -0.003764 0.115865 -0.007191
v 0.002777 0.102098 -0.003717
v -0.001343 0.104563 -0.007169
v 0.005842 0.107684 -0.006340
v 0.004003 0.107323 0.010964
v -0.005604 0.115504 0.010114
v -0.007301 0.118281 -0.002106
v 0.001257 0.111817 -0.008808
v 0.008243 0.105045 -0.000730
v 0.005265 0.114059 0.011690
v 0.009705 0.112076 0.008326
v 0.008209 0.119060 0.008313
v -0.002538 0.121090 0.007491
v 0.001582 0.118625 0.010943
v 0.003623 0.123193 0.005845
v -0.001342 0.121325 -0.003754
v -0.002301 0.122895 0.001865
v 0.004326 0.123331 -0.000765
v 0.007199 0.114438 -0.006505
v 0.003422 0.118985 -0.006362
v 0.009346 0.119283 -0.002382
v 0.011282 0.109948 0.003039
v 0.010842 0.112299 -0.002369
v 0.011746 0.116644 0.003228
v 0.008058 0.119475 0.006805
v 0.004744 0.122462 0.005022
v 0.008880 0.119636 -0.000924
v 0.010614 0.117729 0.003131
v 0.005251 0.122561 0.000245
v 0.004110 0.121206 0.000095
v 0.007738 0.118281 -0.001074
v 0.006917 0.118120 0.006656
v 0.003603 0.121106 0.004872
v 0.009473 0.116373 0.002981
v 0.007298 0.120122 0.002828
vn 0.0000 1.0000 0.0000
vn -0.2540 -0.7479 0.6133
vn -0.2541 -0.7474 0.6139
vn 0.2540 -0.7479 -0.6133
vn 0.2541 -0.7473 -0.6140
vn 0.2540 -0.7479 0.6133
vn 0.2541 -0.7474 0.6139
vn -0.2540 -0.7479 -0.6133
vn -0.2541 -0.7474 -0.6139
vn -0.2541 -0.7473 -0.6140
vn -0.6133 -0.7479 -0.2540
vn -0.6140 -0.7473 -0.2541
vn 0.6133 -0.7479 0.2540
vn 0.6140 -0.7473 0.2541
vn -0.6133 -0.7479 0.2540
vn -0.6140 -0.7473 0.2541
vn 0.6133 -0.7479 -0.2540
vn 0.6140 -0.7473 -0.2541
vn -0.8806 0.3025 0.3648
vn -0.3648 0.3025 -0.8806
vn 0.3648 0.3025 -0.8806
vn 0.8806 0.3025 0.3648
vn -0.3648 0.3025 0.8806
vn -0.8806 0.3025 -0.3648
vn 0.8806 0.3025 -0.3648
vn 0.3648 0.3025 0.8806
vn 0.0879 0.9955 0.0364
vn -0.0364 0.9955 0.0879
vn -0.0879 0.9955 -0.0364
vn 0.0879 0.9955 -0.0364
vn 0.0364 0.9955 0.0879
vn -0.0879 0.9955 0.0364
vn -0.0364 0.9955 -0.0879
vn 0.0364 0.9955 -0.0879
vn -0.1456 0.9248 -0.3515
vn 0.1456 0.9248 -0.3515
vn 0.3515 0.9248 0.1456
vn -0.1456 0.9248 0.3515
vn -0.3515 0.9248 -0.1456
vn 0.3515 0.9248 -0.1456
vn 0.1456 0.9248 0.3515
vn -0.3515 0.9248 0.1456
vn 0.8218 0.4569 -0.3404
vn 0.3404 0.4569 0.8218
vn -0.8218 0.4569 0.3404
vn -0.3404 0.4569 -0.8218
vn 0.3404 0.4569 -0.8218
vn 0.8218 0.4569 0.3404
vn -0.3404 0.4569 0.8218
vn -0.8218 0.4569 -0.3404
vn -0.9224 -0.0557 -0.3821
vn 0.9224 -0.0557 -0.3821
vn 0.3821 -0.0557 0.9224
vn -0.9224 -0.0557 0.3821
vn -0.3820 -0.0557 -0.9225
vn 0.3820 -0.0557 -0.9225
vn 0.9224 -0.0557 0.3821
vn -0.3821 -0.0557 0.9224
vn 0.6200 -0.7413 -0.2568
vn 0.2568 -0.7413 0.6200
vn -0.6200 -0.7413 0.2568
vn 0.2568 -0.7413 -0.6200
vn 0.6200 -0.7413 0.2568
vn -0.2568 -0.7413 0.6200
vn -0.6200 -0.7413 -0.2568
vn -0.2568 -0.7413 -0.6200
vn -0.6123 0.7488 0.2536
vn 0.2536 0.7488 0.6123
vn 0.6123 0.7488 0.2536
vn -0.2536 0.7488 0.6123
vn -0.3826 0.0021 0.9239
vn 0.9239 0.0021 0.3826
vn 0.3826 0.0021 -0.9239
vn -0.3826 0.0021 -0.9239
vn -0.9239 0.0021 0.3826
vn 0.3826 0.0021 0.9239
vn 0.9239 0.0021 -0.3827
vn -0.9239 0.0021 -0.3827
vn 0.0116 0.9999 -0.0116
vn 0.0000 0.9999 -0.0164
vn -0.0116 0.9999 -0.0116
vn 0.0000 0.9999 0.0164
vn 0.0116 0.9999 0.0116
vn -0.0164 0.9999 0.0000
vn -0.0116 0.9999 0.0116
vn 0.0164 0.9999 0.0000
vn -0.2536 0.7488 -0.6123
vn 0.2536 0.7488 -0.6123
vn 0.6123 0.7488 -0.2536
vn -0.6123 0.7488 -0.2536
vn 0.1008 -0.9940 0.0418
vn -0.1008 -0.9940 0.0418
vn -0.0418 -0.9940 -0.1008
vn 0.1008 -0.9940 -0.0418
vn 0.0418 -0.9940 0.1008
vn -0.0418 -0.9940 0.1008
vn -0.1008 -0.9940 -0.0418
vn 0.0418 -0.9940 -0.1008
vn -0.0000 -1.0000 -0.0000
vn 0.3822 -0.0493 0.9228
vn 0.9228 -0.0493 -0.3822
vn -0.9228 -0.0493 -0.3822
vn -0.3822 -0.0493 0.9228
vn 0.9228 -0.0493 0.3822
vn 0.3822 -0.0493 -0.9228
vn -0.3822 -0.0493 -0.9228
vn -0.9228 -0.0493 0.3822
vn -0.9800 -0.1470 0.1339
vn -0.1915 0.4824 -0.8547
vn 0.9686 0.2322 -0.0888
vn 0.1803 -0.3972 0.8999
vn 0.1916 -0.4824 0.8547
vn 0.1862 -0.4403 0.8783
vn 0.9800 0.1470 -0.1339
vn 0.9755 0.1898 -0.1115
vn -0.1801 0.3972 -0.8999
vn -0.1860 0.4403 -0.8783
vn -0.9686 -0.2322 0.0888
vn -0.9755 -0.1898 0.1115
vn -0.5338 -0.7864 0.3109
vn 0.1780 -0.9394 0.2929
vn -0.8594 -0.4930 0.1357
vn -0.8095 -0.4832 -0.3335
vn -0.4531 -0.7705 -0.4483
vn 0.4991 -0.8087 0.3112
vn -0.2558 -0.2421 0.9359
vn -0.8967 0.3746 0.2358
vn -0.5378 0.1892 -0.8216
vn 0.3249 -0.5421 -0.7749
vn 0.4848 -0.6097 0.6270
vn -0.3983 0.1023 0.9115
vn -0.8205 0.5666 -0.0754
vn -0.1983 0.1415 -0.9699
vn 0.6084 -0.5855 -0.5357
vn 0.6364 0.1378 0.7589
vn -0.0866 0.7589 0.6454
vn -0.1780 0.9394 -0.2929
vn 0.4885 0.4298 -0.7593
vn 0.9918 -0.0656 -0.1092
vn 0.6156 0.7734 0.1513
vn 0.9314 0.1989 -0.3048
vn 0.7811 0.1662 -0.6019
vn 0.6894 0.7230 0.0453
vn 0.3718 0.7032 -0.6060
vn 0.0477 0.7853 -0.6173
vn 0.5849 0.8073 0.0790
vn -0.0598 0.9981 0.0144
vn -0.2397 0.9273 0.2875
vn 0.6803 0.7213 0.1305
vn 0.2330 0.6760 0.6991
vn 0.3162 0.3960 0.8621
vn 0.6302 0.7763 0.0134
vn 0.8456 0.1821 0.5017
vn 0.9470 -0.0744 0.3124
vn 0.8967 -0.3746 -0.2358
vn 0.7659 -0.3900 -0.5111
vn 0.6993 -0.1575 -0.6973
vn 0.2558 0.2421 -0.9359
vn -0.0356 0.3324 -0.9425
vn -0.1571 0.5751 -0.8029
vn -0.4991 0.8087 -0.3112
vn -0.6538 0.7547 -0.0538
vn -0.5569 0.7974 0.2325
vn -0.3249 0.5422 0.7749
vn -0.2343 0.2934 0.9268
vn 0.0524 0.2022 0.9779
vn 0.5378 -0.1892 0.8216
vn 0.6431 -0.4141 0.6442
vn 0.8287 -0.3880 0.4033
vn 0.3983 -0.1023 -0.9115
vn 0.2343 -0.2934 -0.9268
vn -0.0523 -0.2022 -0.9779
vn -0.4848 0.6097 -0.6270
vn -0.6431 0.4141 -0.6442
vn -0.8287 0.3879 -0.4034
vn -0.6084 0.5855 0.5357
vn -0.7659 0.3900 0.5111
vn -0.6993 0.1575 0.6973
vn 0.1983 -0.1416 0.9699
vn 0.0356 -0.3324 0.9425
vn 0.1571 -0.5751 0.8029
vn 0.8205 -0.5666 0.0754
vn 0.6538 -0.7547 0.0538
vn 0.5569 -0.7974 -0.2325
vn 0.0866 -0.7589 -0.6454
vn -0.2330 -0.6760 -0.6991
vn -0.3161 -0.3960 -0.8621
vn -0.6364 -0.1378 -0.7589
vn -0.8456 -0.1821 -0.5017
vn -0.9470 0.0744 -0.3125
vn -0.9918 0.0656 0.1093
vn -0.9314 -0.1989 0.3049
vn -0.7811 -0.1662 0.6019
vn 0.2397 -0.9273 -0.2875
vn 0.0598 -0.9981 -0.0144
vn -0.2827 -0.9579 -0.0500
vn -0.4885 -0.4298 0.7593
vn -0.3718 -0.7033 0.6060
vn -0.0477 -0.7853 0.6173
vn 0.1342 -0.2197 0.9663
vn 0.3353 -0.1802 -0.9247
vn -0.6767 0.5111 0.5299
vn 0.7596 -0.6469 0.0673
vn -0.5524 0.5356 -0.6388
vn 0.8594 0.4930 -0.1357
vn 0.5338 0.7864 -0.3109
vn 0.2828 0.9579 0.0500
vn 0.4531 0.7705 0.4483
vn 0.8095 0.4832 0.3335
usemtl FFEB3B
s 1
f 1//1 2//1 3//1
f 4//1 5//1 3//1
f 6//1 7//1 3//1
f 8//1 9//1 3//1
f 10//2 11//3 12//3 13//2
f 14//4 15//5 16//5 17//4
f 18//6 19//7 11//7 10//6
f 20//8 21//9 15//10 14//8
f 22//11 23//12 21//12 20//11
f 24//13 25//14 19//14 18//13
f 13//15 12//16 23//16 22//15
f 17//17 16//18 25//18 24//17
f 5//1 8//1 3//1
f 9//1 6//1 3//1
f 7//1 1//1 3//1
f 2//1 4//1 3//1
usemtl FFFFFF
f 26//19 27//19 28//19 29//19
f 30//20 31//20 32//20 33//20
f 33//21 32//21 34//21 35//21
f 36//22 37//22 38//22 39//22
f 40//23 41//23 27//23 26//23
f 29//24 28//24 31//24 30//24
f 35//25 34//25 37//25 36//25
f 39//26 38//26 41//26 40//26
f 37//27 42//27 43//27 38//27
f 41//28 44//28 45//28 27//28
f 28//29 46//29 47//29 31//29
f 34//30 48//30 42//30 37//30
f 38//31 43//31 44//31 41//31
f 27//32 45//32 46//32 28//32
f 31//33 47//33 49//33 32//33
f 32//34 49//34 48//34 34//34
f 47//35 50//35 51//35 49//35
f 49//36 51//36 52//36 48//36
f 42//37 53//37 54//37 43//37
f 44//38 55//38 56//38 45//38
f 46//39 57//39 50//39 47//39
f 48//40 52//40 53//40 42//40
f 43//41 54//41 55//41 44//41
f 45//42 56//42 57//42 46//42
f 52//43 58//43 59//43 53//43
f 54//44 60//44 61//44 55//44
f 56//45 62//45 63//45 57//45
f 50//46 64//46 65//46 51//46
f 51//47 65//47 58//47 52//47
f 53//48 59//48 60//48 54//48
f 55//49 61//49 62//49 56//49
f 57//50 63//50 64//50 50//50
f 66//51 22//51 20//51 67//51
f 68//52 17//52 24//52 69//52
f 70//53 18//53 10//53 71//53
f 72//54 13//54 22//54 66//54
f 67//55 20//55 14//55 73//55
f 73//56 14//56 17//56 68//56
f 69//57 24//57 18//57 70//57
f 71//58 10//58 13//58 72//58
f 16//18 74//59 75//59 25//18
f 19//7 76//60 77//60 11//7
f 12//16 78//61 79//61 23//16
f 15//5 80//62 74//62 16//5
f 25//14 75//63 76//63 19//14
f 11//3 77//64 78//64 12//3
f 23//12 79//65 81//65 21//12
f 21//9 81//66 80//66 15//10
f 82//67 83//67 7//67 6//67
f 84//68 85//68 2//68 1//68
f 85//69 86//69 4//69 2//69
f 83//70 84//70 1//70 7//70
f 61//71 71//71 72//71 62//71
f 59//72 69//72 70//72 60//72
f 65//73 73//73 68//73 58//73
f 64//74 67//74 73//74 65//74
f 62//75 72//75 66//75 63//75
f 60//76 70//76 71//76 61//76
f 58//77 68//77 69//77 59//77
f 63//78 66//78 67//78 64//78
f 78//79 77//80 87//80 88//79
f 77//80 76//81 89//81 87//80
f 80//82 81//83 85//83 84//82
f 76//81 75//84 82//84 89//81
f 75//84 74//85 83//85 82//84
f 79//86 78//79 88//79 86//86
f 74//85 80//82 84//82 83//85
f 81//83 79//86 86//86 85//83
f 87//87 89//87 9//87 8//87
f 88//88 87//88 8//88 5//88
f 86//89 88//89 5//89 4//89
f 89//90 82//90 6//90 9//90
f 90//91 91//91 92//91 93//91
f 94//92 95//92 96//92 97//92
f 98//93 99//93 100//93 101//93
f 102//94 90//94 93//94 103//94
f 91//95 104//95 105//95 92//95
f 104//96 94//96 97//96 105//96
f 95//97 98//97 101//97 96//97
f 99//98 102//98 103//98 100//98
f 97//99 96//99 106//99
f 101//99 100//99 106//99
f 103//99 93//99 106//99
f 92//99 105//99 106//99
f 105//99 97//99 106//99
f 96//99 101//99 106//99
f 100//99 103//99 106//99
f 93//99 92//99 106//99
f 98//100 39//100 40//100 99//100
f 94//101 35//101 36//101 95//101
f 90//102 29//102 30//102 91//102
f 99//103 40//103 26//103 102//103
f 95//104 36//104 39//104 98//104
f 104//105 33//105 35//105 94//105
f 91//106 30//106 33//106 104//106
f 102//107 26//107 29//107 90//107
usemtl DD9944
f 107//108 108//108 109//108
f 109//109 108//109 110//109
f 110//110 108//110 111//110
f 111//111 108//111 107//111
f 112//112 113//112 114//112
f 113//113 111//113 107//113 114//113
f 112//114 115//114 113//114
f 115//115 110//115 111//115 113//115
f 112//116 116//116 115//116
f 116//117 109//117 110//117 115//117
f 112//118 114//118 116//118
f 114//119 107//119 109//119 116//119
usemtl 4CAF50
f 117//120 118//120 119//120
f 120//121 118//121 121//121
f 117//122 119//122 122//122
f 117//123 122//123 123//123
f 117//124 123//124 124//124
f 120//125 121//125 125//125
f 126//126 127//126 128//126
f 129//127 130//127 131//127
f 132//128 133//128 134//128
f 135//129 136//129 137//129
f 120//130 125//130 138//130
f 126//131 128//131 139//131
f 129//132 131//132 140//132
f 132//133 134//133 141//133
f 135//134 137//134 142//134
f 143//135 144//135 145//135
f 146//136 147//136 148//136
f 149//137 150//137 151//137
f 152//138 153//138 154//138
f 155//139 156//139 157//139
f 148//140 145//140 158//140 159//140
f 157//141 156//141 154//141
f 156//142 152//142 154//142
f 157//143 154//143 160//143 161//143
f 154//144 153//144 151//144
f 153//145 149//145 151//145
f 151//146 148//146 159//146 162//146
f 151//147 150//147 148//147
f 150//148 146//148 148//148
f 145//149 157//149 161//149 158//149
f 148//150 147//150 145//150
f 147//151 143//151 145//151
f 154//152 151//152 162//152 160//152
f 145//153 144//153 157//153
f 144//154 155//154 157//154
f 142//155 156//155 155//155
f 142//156 137//156 156//156
f 137//157 152//157 156//157
f 141//158 153//158 152//158
f 141//159 134//159 153//159
f 134//160 149//160 153//160
f 140//161 150//161 149//161
f 140//162 131//162 150//162
f 131//163 146//163 150//163
f 139//164 147//164 146//164
f 139//165 128//165 147//165
f 128//166 143//166 147//166
f 138//167 144//167 143//167
f 138//168 125//168 144//168
f 125//169 155//169 144//169
f 137//170 141//170 152//170
f 137//171 136//171 141//171
f 136//172 132//172 141//172
f 134//173 140//173 149//173
f 134//174 133//174 140//174
f 133//175 129//175 140//175
f 131//176 139//176 146//176
f 131//177 130//177 139//177
f 130//178 126//178 139//178
f 128//179 138//179 143//179
f 128//180 127//180 138//180
f 127//181 120//181 138//181
f 125//182 142//182 155//182
f 125//183 121//183 142//183
f 121//184 135//184 142//184
f 124//185 136//185 135//185
f 124//186 123//186 136//186
f 123//187 132//187 136//187
f 123//188 133//188 132//188
f 123//189 122//189 133//189
f 122//190 129//190 133//190
f 122//191 130//191 129//191
f 122//192 119//192 130//192
f 119//193 126//193 130//193
f 121//194 124//194 135//194
f 121//195 118//195 124//195
f 118//196 117//196 124//196
f 119//197 127//197 126//197
f 119//198 118//198 127//198
f 118//199 120//199 127//199
f 160//200 162//200 163//200 164//200
f 159//201 158//201 165//201 166//201
f 161//202 160//202 164//202 167//202
f 162//203 159//203 166//203 163//203
f 158//204 161//204 167//204 165//204
usemtl F44336
f 167//205 164//205 168//205
f 164//206 163//206 168//206
f 163//207 166//207 168//207
f 166//208 165//208 168//208
f 165//209 167//209 168//209
