{
	"accessors" : 
	[
		{
			"bufferView" : 2,
			"byteOffset" : 0,
			"componentType" : 5126,
			"count" : 9978,
			"max" : 
			[
				1,
				1,
				1,
				1
			],
			"min" : 
			[
				0.006584956776350737,
				0.006584956776350737,
				0.006584956776350737,
				1
			],
			"name" : "accessor_color_m0-PolyPaper21_-125092",
			"type" : "VEC4"
		},
		{
			"bufferView" : 2,
			"byteOffset" : 159648,
			"componentType" : 5126,
			"count" : 6882,
			"max" : 
			[
				1,
				1,
				1,
				1
			],
			"min" : 
			[
				0,
				0.006584956776350737,
				0.006584956776350737,
				1
			],
			"name" : "accessor_color_m1-PolyPaper10_-160278",
			"type" : "VEC4"
		},
		{
			"bufferView" : 2,
			"byteOffset" : 269760,
			"componentType" : 5126,
			"count" : 9792,
			"max" : 
			[
				1,
				0.09387587010860443,
				0.01188133470714092,
				1
			],
			"min" : 
			[
				1,
				0.09387587010860443,
				0.01188133470714092,
				1
			],
			"name" : "accessor_color_m2-PolyPaper14_-72718",
			"type" : "VEC4"
		},
		{
			"bufferView" : 2,
			"byteOffset" : 426432,
			"componentType" : 5126,
			"count" : 9792,
			"max" : 
			[
				1,
				0.3250369727611542,
				0.05459228157997131,
				1
			],
			"min" : 
			[
				0.729918897151947,
				0.09387587010860443,
				0.01188133470714092,
				1
			],
			"name" : "accessor_color_m3-PolyPaper14_-73898",
			"type" : "VEC4"
		},
		{
			"bufferView" : 2,
			"byteOffset" : 583104,
			"componentType" : 5126,
			"count" : 9936,
			"max" : 
			[
				1,
				1,
				1,
				1
			],
			"min" : 
			[
				0.006584956776350737,
				0.006584956776350737,
				0.006584956776350737,
				1
			],
			"name" : "accessor_color_m4-PolyPaper10_-131132",
			"type" : "VEC4"
		},
		{
			"bufferView" : 2,
			"byteOffset" : 742080,
			"componentType" : 5126,
			"count" : 84,
			"max" : 
			[
				1,
				1,
				1,
				1
			],
			"min" : 
			[
				1,
				1,
				1,
				1
			],
			"name" : "accessor_color_m5-PolyGem25_-94664",
			"type" : "VEC4"
		},
		{
			"bufferView" : 2,
			"byteOffset" : 743424,
			"componentType" : 5126,
			"count" : 90,
			"max" : 
			[
				0.6800203323364258,
				0.6800203323364258,
				0.6800203323364258,
				0.2509804
			],
			"min" : 
			[
				0.6800203323364258,
				0.6800203323364258,
				0.6800203323364258,
				0.2509804
			],
			"name" : "accessor_color_m6-PolyGlass24_-160344",
			"type" : "VEC4"
		},
		{
			"bufferView" : 2,
			"byteOffset" : 744864,
			"componentType" : 5126,
			"count" : 9888,
			"max" : 
			[
				1,
				1,
				1,
				1
			],
			"min" : 
			[
				0.006584956776350737,
				0.006584956776350737,
				0.006584956776350737,
				1
			],
			"name" : "accessor_color_m7-PolyPaper12_-117376",
			"type" : "VEC4"
		},
		{
			"bufferView" : 0,
			"byteOffset" : 0,
			"componentType" : 5123,
			"count" : 14790,
			"max" : 
			[
				9977
			],
			"min" : 
			[
				0
			],
			"name" : "accessor_indices_0_m0-PolyPaper21_-125092",
			"type" : "SCALAR"
		},
		{
			"bufferView" : 0,
			"byteOffset" : 29580,
			"componentType" : 5123,
			"count" : 10104,
			"max" : 
			[
				6881
			],
			"min" : 
			[
				0
			],
			"name" : "accessor_indices_0_m1-PolyPaper10_-160278",
			"type" : "SCALAR"
		},
		{
			"bufferView" : 0,
			"byteOffset" : 49788,
			"componentType" : 5123,
			"count" : 13824,
			"max" : 
			[
				9791
			],
			"min" : 
			[
				0
			],
			"name" : "accessor_indices_0_m2-PolyPaper14_-72718",
			"type" : "SCALAR"
		},
		{
			"bufferView" : 0,
			"byteOffset" : 77436,
			"componentType" : 5123,
			"count" : 13824,
			"max" : 
			[
				9791
			],
			"min" : 
			[
				0
			],
			"name" : "accessor_indices_0_m3-PolyPaper14_-73898",
			"type" : "SCALAR"
		},
		{
			"bufferView" : 0,
			"byteOffset" : 105084,
			"componentType" : 5123,
			"count" : 13986,
			"max" : 
			[
				9935
			],
			"min" : 
			[
				0
			],
			"name" : "accessor_indices_0_m4-PolyPaper10_-131132",
			"type" : "SCALAR"
		},
		{
			"bufferView" : 0,
			"byteOffset" : 133056,
			"componentType" : 5123,
			"count" : 114,
			"max" : 
			[
				83
			],
			"min" : 
			[
				0
			],
			"name" : "accessor_indices_0_m5-PolyGem25_-94664",
			"type" : "SCALAR"
		},
		{
			"bufferView" : 0,
			"byteOffset" : 133284,
			"componentType" : 5123,
			"count" : 120,
			"max" : 
			[
				89
			],
			"min" : 
			[
				0
			],
			"name" : "accessor_indices_0_m6-PolyGlass24_-160344",
			"type" : "SCALAR"
		},
		{
			"bufferView" : 0,
			"byteOffset" : 133524,
			"componentType" : 5123,
			"count" : 14718,
			"max" : 
			[
				9887
			],
			"min" : 
			[
				0
			],
			"name" : "accessor_indices_0_m7-PolyPaper12_-117376",
			"type" : "SCALAR"
		},
		{
			"bufferView" : 1,
			"byteOffset" : 119736,
			"componentType" : 5126,
			"count" : 9978,
			"max" : 
			[
				1,
				1,
				0.9999999000000001
			],
			"min" : 
			[
				-1,
				-1,
				-0.9999999000000001
			],
			"name" : "accessor_normal_m0-PolyPaper21_-125092",
			"type" : "VEC3"
		},
		{
			"bufferView" : 1,
			"byteOffset" : 322056,
			"componentType" : 5126,
			"count" : 6882,
			"max" : 
			[
				1,
				1,
				1
			],
			"min" : 
			[
				-1,
				-1,
				-1
			],
			"name" : "accessor_normal_m1-PolyPaper10_-160278",
			"type" : "VEC3"
		},
		{
			"bufferView" : 1,
			"byteOffset" : 522144,
			"componentType" : 5126,
			"count" : 9792,
			"max" : 
			[
				0.9837435,
				0.9837453,
				0.9659262
			],
			"min" : 
			[
				-0.9837434,
				-0.9837453,
				-0.9659262
			],
			"name" : "accessor_normal_m2-PolyPaper14_-72718",
			"type" : "VEC3"
		},
		{
			"bufferView" : 1,
			"byteOffset" : 757152,
			"componentType" : 5126,
			"count" : 9792,
			"max" : 
			[
				0.9837437,
				0.9837453,
				0.9659263
			],
			"min" : 
			[
				-0.9837437,
				-0.9837453,
				-0.9659262
			],
			"name" : "accessor_normal_m3-PolyPaper14_-73898",
			"type" : "VEC3"
		},
		{
			"bufferView" : 1,
			"byteOffset" : 993888,
			"componentType" : 5126,
			"count" : 9936,
			"max" : 
			[
				1,
				1,
				1
			],
			"min" : 
			[
				-1,
				-1,
				-1
			],
			"name" : "accessor_normal_m4-PolyPaper10_-131132",
			"type" : "VEC3"
		},
		{
			"bufferView" : 1,
			"byteOffset" : 1114128,
			"componentType" : 5126,
			"count" : 84,
			"max" : 
			[
				0.6644308,
				0.9961603,
				0.8331332
			],
			"min" : 
			[
				-0.9739776,
				-0.9967117,
				-0.6347877
			],
			"name" : "accessor_normal_m5-PolyGem25_-94664",
			"type" : "VEC3"
		},
		{
			"bufferView" : 1,
			"byteOffset" : 1116216,
			"componentType" : 5126,
			"count" : 90,
			"max" : 
			[
				0.9674671,
				0.9941326,
				0.8417816
			],
			"min" : 
			[
				-0.9817603,
				-0.9941325,
				-0.9366866
			],
			"name" : "accessor_normal_m6-PolyGlass24_-160344",
			"type" : "VEC3"
		},
		{
			"bufferView" : 1,
			"byteOffset" : 1235952,
			"componentType" : 5126,
			"count" : 9888,
			"max" : 
			[
				0.9965308,
				1,
				0.9961679
			],
			"min" : 
			[
				-0.9878155,
				-1,
				-0.9961247
			],
			"name" : "accessor_normal_m7-PolyPaper12_-117376",
			"type" : "VEC3"
		},
		{
			"bufferView" : 1,
			"byteOffset" : 0,
			"componentType" : 5126,
			"count" : 9978,
			"max" : 
			[
				0.4099608,
				1.559535,
				1.289995
			],
			"min" : 
			[
				-0.3600393,
				1.069966,
				0.1221034
			],
			"name" : "accessor_position_m0-PolyPaper21_-125092",
			"type" : "VEC3"
		},
		{
			"bufferView" : 1,
			"byteOffset" : 239472,
			"componentType" : 5126,
			"count" : 6882,
			"max" : 
			[
				0.43757,
				1.576967,
				1.980979
			],
			"min" : 
			[
				-0.7830857,
				1.051004,
				0.1210622
			],
			"name" : "accessor_position_m1-PolyPaper10_-160278",
			"type" : "VEC3"
		},
		{
			"bufferView" : 1,
			"byteOffset" : 404640,
			"componentType" : 5126,
			"count" : 9792,
			"max" : 
			[
				0.209568,
				1.42002,
				0.3895461
			],
			"min" : 
			[
				0.08019442,
				1.369971,
				0.2299955
			],
			"name" : "accessor_position_m2-PolyPaper14_-72718",
			"type" : "VEC3"
		},
		{
			"bufferView" : 1,
			"byteOffset" : 639648,
			"componentType" : 5126,
			"count" : 9792,
			"max" : 
			[
				0.2194615,
				1.440032,
				0.5989676
			],
			"min" : 
			[
				0.0401914,
				1.270195,
				0.1604788
			],
			"name" : "accessor_position_m3-PolyPaper14_-73898",
			"type" : "VEC3"
		},
		{
			"bufferView" : 1,
			"byteOffset" : 874656,
			"componentType" : 5126,
			"count" : 9936,
			"max" : 
			[
				0.3999707,
				1.45966,
				1.379971
			],
			"min" : 
			[
				-0.3800296,
				1.169988,
				-0.01002911
			],
			"name" : "accessor_position_m4-PolyPaper10_-131132",
			"type" : "VEC3"
		},
		{
			"bufferView" : 1,
			"byteOffset" : 1113120,
			"componentType" : 5126,
			"count" : 84,
			"max" : 
			[
				0.2692023,
				1.375403,
				0.7975345
			],
			"min" : 
			[
				-0.009026331,
				1.30066,
				0.6372849
			],
			"name" : "accessor_position_m5-PolyGem25_-94664",
			"type" : "VEC3"
		},
		{
			"bufferView" : 1,
			"byteOffset" : 1115136,
			"componentType" : 5126,
			"count" : 90,
			"max" : 
			[
				0.2675871,
				1.36959,
				0.8151485000000001
			],
			"min" : 
			[
				-0.01131733,
				1.306403,
				0.6924623
			],
			"name" : "accessor_position_m6-PolyGlass24_-160344",
			"type" : "VEC3"
		},
		{
			"bufferView" : 1,
			"byteOffset" : 1117296,
			"componentType" : 5126,
			"count" : 9888,
			"max" : 
			[
				0.2797561,
				1.452922,
				1.125721
			],
			"min" : 
			[
				-0.2406677,
				1.260007,
				0.220021
			],
			"name" : "accessor_position_m7-PolyPaper12_-117376",
			"type" : "VEC3"
		}
	],
	"asset" : 
	{
		"copyright" : "Unknown",
		"generator" : "glTF 1-to-2 Upgrader for Google Blocks",
		"version" : "2.0"
	},
	"bufferViews" : 
	[
		{
			"buffer" : 0,
			"byteLength" : 162960,
			"byteOffset" : 0,
			"name" : "ushortBufferView",
			"target" : 34963
		},
		{
			"buffer" : 0,
			"byteLength" : 1354608,
			"byteOffset" : 162960,
			"byteStride" : 12,
			"name" : "vec3BufferView",
			"target" : 34962
		},
		{
			"buffer" : 0,
			"byteLength" : 903072,
			"byteOffset" : 1517568,
			"byteStride" : 16,
			"name" : "vec4BufferView",
			"target" : 34962
		}
	],
	"buffers" : 
	[
		{
			"byteLength" : 2420640,
			"name" : "model",
			"uri" : "model.bin"
		}
	],
	"materials" : 
	[
		{
			"alphaMode" : "OPAQUE",
			"doubleSided" : false,
			"name" : "BlocksPaper",
			"pbrMetallicRoughness" : 
			{
				"baseColorFactor" : 
				[
					1,
					1,
					1,
					1
				],
				"metallicFactor" : 0,
				"roughnessFactor" : 0.6
			}
		},
		{
			"alphaMode" : "BLEND",
			"doubleSided" : false,
			"name" : "BlocksGlass",
			"pbrMetallicRoughness" : 
			{
				"baseColorFactor" : 
				[
					0.2,
					0.2,
					1,
					0.3
				],
				"metallicFactor" : 1,
				"roughnessFactor" : 0.4
			}
		},
		{
			"alphaMode" : "OPAQUE",
			"doubleSided" : true,
			"name" : "BlocksGem",
			"pbrMetallicRoughness" : 
			{
				"baseColorFactor" : 
				[
					1,
					0.4,
					1,
					1
				],
				"metallicFactor" : 0,
				"roughnessFactor" : 0.1
			}
		}
	],
	"meshes" : 
	[
		{
			"name" : "mesh_m0-PolyPaper21_-125092",
			"primitives" : 
			[
				{
					"attributes" : 
					{
						"COLOR_0" : 0,
						"NORMAL" : 16,
						"POSITION" : 24
					},
					"indices" : 8,
					"material" : 0,
					"mode" : 4
				}
			]
		},
		{
			"name" : "mesh_m1-PolyPaper10_-160278",
			"primitives" : 
			[
				{
					"attributes" : 
					{
						"COLOR_0" : 1,
						"NORMAL" : 17,
						"POSITION" : 25
					},
					"indices" : 9,
					"material" : 0,
					"mode" : 4
				}
			]
		},
		{
			"name" : "mesh_m2-PolyPaper14_-72718",
			"primitives" : 
			[
				{
					"attributes" : 
					{
						"COLOR_0" : 2,
						"NORMAL" : 18,
						"POSITION" : 26
					},
					"indices" : 10,
					"material" : 0,
					"mode" : 4
				}
			]
		},
		{
			"name" : "mesh_m3-PolyPaper14_-73898",
			"primitives" : 
			[
				{
					"attributes" : 
					{
						"COLOR_0" : 3,
						"NORMAL" : 19,
						"POSITION" : 27
					},
					"indices" : 11,
					"material" : 0,
					"mode" : 4
				}
			]
		},
		{
			"name" : "mesh_m4-PolyPaper10_-131132",
			"primitives" : 
			[
				{
					"attributes" : 
					{
						"COLOR_0" : 4,
						"NORMAL" : 20,
						"POSITION" : 28
					},
					"indices" : 12,
					"material" : 0,
					"mode" : 4
				}
			]
		},
		{
			"name" : "mesh_m5-PolyGem25_-94664",
			"primitives" : 
			[
				{
					"attributes" : 
					{
						"COLOR_0" : 5,
						"NORMAL" : 21,
						"POSITION" : 29
					},
					"indices" : 13,
					"material" : 2,
					"mode" : 4
				}
			]
		},
		{
			"name" : "mesh_m6-PolyGlass24_-160344",
			"primitives" : 
			[
				{
					"attributes" : 
					{
						"COLOR_0" : 6,
						"NORMAL" : 22,
						"POSITION" : 30
					},
					"indices" : 14,
					"material" : 1,
					"mode" : 4
				}
			]
		},
		{
			"name" : "mesh_m7-PolyPaper12_-117376",
			"primitives" : 
			[
				{
					"attributes" : 
					{
						"COLOR_0" : 7,
						"NORMAL" : 23,
						"POSITION" : 31
					},
					"indices" : 15,
					"material" : 0,
					"mode" : 4
				}
			]
		}
	],
	"nodes" : 
	[
		{
			"matrix" : 
			[
				1,
				0,
				0,
				0,
				0,
				1,
				0,
				0,
				0,
				0,
				1,
				0,
				0,
				0,
				0,
				1
			],
			"mesh" : 7,
			"name" : "node_MeshObject-1414931584-PolyPaper12"
		},
		{
			"matrix" : 
			[
				1,
				0,
				0,
				0,
				0,
				1,
				0,
				0,
				0,
				0,
				1,
				0,
				0,
				0,
				0,
				1
			],
			"mesh" : 4,
			"name" : "node_MeshObject-1659995456-PolyPaper10"
		},
		{
			"matrix" : 
			[
				1,
				0,
				0,
				0,
				0,
				1,
				0,
				0,
				0,
				0,
				1,
				0,
				0,
				0,
				0,
				1
			],
			"mesh" : 3,
			"name" : "node_MeshObject-1738269120-PolyPaper14"
		},
		{
			"matrix" : 
			[
				1,
				0,
				0,
				0,
				0,
				1,
				0,
				0,
				0,
				0,
				1,
				0,
				0,
				0,
				0,
				1
			],
			"mesh" : 0,
			"name" : "node_MeshObject-543709120-PolyPaper21"
		},
		{
			"matrix" : 
			[
				1,
				0,
				0,
				0,
				0,
				1,
				0,
				0,
				0,
				0,
				1,
				0,
				0,
				0,
				0,
				1
			],
			"mesh" : 1,
			"name" : "node_MeshObject-680767168-PolyPaper10"
		},
		{
			"matrix" : 
			[
				1,
				0,
				0,
				0,
				0,
				1,
				0,
				0,
				0,
				0,
				1,
				0,
				0,
				0,
				0,
				1
			],
			"mesh" : 6,
			"name" : "node_MeshObject1085104448-PolyGlass24"
		},
		{
			"matrix" : 
			[
				1,
				0,
				0,
				0,
				0,
				1,
				0,
				0,
				0,
				0,
				1,
				0,
				0,
				0,
				0,
				1
			],
			"mesh" : 5,
			"name" : "node_MeshObject710649984-PolyGem25"
		},
		{
			"matrix" : 
			[
				1,
				0,
				0,
				0,
				0,
				1,
				0,
				0,
				0,
				0,
				1,
				0,
				0,
				0,
				0,
				1
			],
			"mesh" : 2,
			"name" : "node_MeshObject899201024-PolyPaper14"
		}
	],
	"scene" : 0,
	"scenes" : 
	[
		{
			"extras" : {},
			"name" : "defaultScene",
			"nodes" : 
			[
				3,
				4,
				7,
				2,
				1,
				6,
				5,
				0
			]
		}
	]
}