{
    "asset" : {
        "generator" : "Khronos glTF Blender I/O v0.9.36",
        "version" : "2.0"
    },
    "scene" : 0,
    "scenes" : [
        {
            "name" : "Scene",
            "nodes" : [
                0
            ]
        }
    ],
    "nodes" : [
        {
            "mesh" : 0,
            "name" : "3",
            "rotation" : [
                0.7071067690849304,
                0,
                0,
                0.7071067690849304
            ],
            "scale" : [
                0.009731951169669628,
                0.009731951169669628,
                0.009731951169669628
            ],
            "translation" : [
                -0.011073321104049683,
                0,
                0
            ]
        }
    ],
    "materials" : [
        {
            "doubleSided" : true,
            "name" : "07___Default",
            "pbrMetallicRoughness" : {
                "baseColorFactor" : [
                    0.6078000068664551,
                    0.33730000257492065,
                    0.1607999950647354,
                    1
                ],
                "metallicFactor" : 0,
                "roughnessFactor" : 0.8945907354354858
            }
        },
        {
            "doubleSided" : true,
            "name" : "04___Default",
            "pbrMetallicRoughness" : {
                "baseColorFactor" : [
                    1,
                    1,
                    1,
                    1
                ],
                "metallicFactor" : 0,
                "roughnessFactor" : 0.8945907354354858
            }
        },
        {
            "doubleSided" : true,
            "name" : "10___Default",
            "pbrMetallicRoughness" : {
                "baseColorFactor" : [
                    0.5881999731063843,
                    0.5881999731063843,
                    0.5881999731063843,
                    1
                ],
                "metallicFactor" : 0,
                "roughnessFactor" : 0.8945907354354858
            }
        },
        {
            "doubleSided" : true,
            "name" : "09___Default",
            "pbrMetallicRoughness" : {
                "baseColorFactor" : [
                    0.20000000298023224,
                    0.027499999850988388,
                    0.027499999850988388,
                    1
                ],
                "metallicFactor" : 0,
                "roughnessFactor" : 0.8945907354354858
            }
        }
    ],
    "meshes" : [
        {
            "name" : "3",
            "primitives" : [
                {
                    "attributes" : {
                        "POSITION" : 0,
                        "NORMAL" : 1,
                        "TEXCOORD_0" : 2
                    },
                    "indices" : 3,
                    "material" : 0
                },
                {
                    "attributes" : {
                        "POSITION" : 4,
                        "NORMAL" : 5,
                        "TEXCOORD_0" : 6
                    },
                    "indices" : 7,
                    "material" : 1
                },
                {
                    "attributes" : {
                        "POSITION" : 8,
                        "NORMAL" : 9,
                        "TEXCOORD_0" : 10
                    },
                    "indices" : 11,
                    "material" : 2
                },
                {
                    "attributes" : {
                        "POSITION" : 12,
                        "NORMAL" : 13,
                        "TEXCOORD_0" : 14
                    },
                    "indices" : 15,
                    "material" : 3
                }
            ]
        }
    ],
    "accessors" : [
        {
            "bufferView" : 0,
            "componentType" : 5126,
            "count" : 5122,
            "max" : [
                10.739823341369629,
                8.889152526855469,
                -0.5896880030632019
            ],
            "min" : [
                -11.566149711608887,
                -10.203445434570312,
                -5.497183799743652
            ],
            "type" : "VEC3"
        },
        {
            "bufferView" : 1,
            "componentType" : 5126,
            "count" : 5122,
            "type" : "VEC3"
        },
        {
            "bufferView" : 2,
            "componentType" : 5126,
            "count" : 5122,
            "type" : "VEC2"
        },
        {
            "bufferView" : 3,
            "componentType" : 5123,
            "count" : 27936,
            "type" : "SCALAR"
        },
        {
            "bufferView" : 4,
            "componentType" : 5126,
            "count" : 4133,
            "max" : [
                14.15246868133545,
                14.24238395690918,
                -0.19353070855140686
            ],
            "min" : [
                -14.794075965881348,
                -14.704120635986328,
                -1.8135935068130493
            ],
            "type" : "VEC3"
        },
        {
            "bufferView" : 5,
            "componentType" : 5126,
            "count" : 4133,
            "type" : "VEC3"
        },
        {
            "bufferView" : 6,
            "componentType" : 5126,
            "count" : 4133,
            "type" : "VEC2"
        },
        {
            "bufferView" : 7,
            "componentType" : 5123,
            "count" : 23616,
            "type" : "SCALAR"
        },
        {
            "bufferView" : 8,
            "componentType" : 5126,
            "count" : 410,
            "max" : [
                0.9754743576049805,
                9.109382629394531,
                -0.7740065455436707
            ],
            "min" : [
                -3.6681480407714844,
                4.461544990539551,
                -5.108941078186035
            ],
            "type" : "VEC3"
        },
        {
            "bufferView" : 9,
            "componentType" : 5126,
            "count" : 410,
            "type" : "VEC3"
        },
        {
            "bufferView" : 10,
            "componentType" : 5126,
            "count" : 410,
            "type" : "VEC2"
        },
        {
            "bufferView" : 11,
            "componentType" : 5123,
            "count" : 1098,
            "type" : "SCALAR"
        },
        {
            "bufferView" : 12,
            "componentType" : 5126,
            "count" : 55,
            "max" : [
                0.6336236000061035,
                8.889446258544922,
                -2.6939265727996826
            ],
            "min" : [
                -3.2988882064819336,
                4.754549980163574,
                -5.422980308532715
            ],
            "type" : "VEC3"
        },
        {
            "bufferView" : 13,
            "componentType" : 5126,
            "count" : 55,
            "type" : "VEC3"
        },
        {
            "bufferView" : 14,
            "componentType" : 5126,
            "count" : 55,
            "type" : "VEC2"
        },
        {
            "bufferView" : 15,
            "componentType" : 5123,
            "count" : 240,
            "type" : "SCALAR"
        }
    ],
    "bufferViews" : [
        {
            "buffer" : 0,
            "byteLength" : 61464,
            "byteOffset" : 0
        },
        {
            "buffer" : 0,
            "byteLength" : 61464,
            "byteOffset" : 61464
        },
        {
            "buffer" : 0,
            "byteLength" : 40976,
            "byteOffset" : 122928
        },
        {
            "buffer" : 0,
            "byteLength" : 55872,
            "byteOffset" : 163904
        },
        {
            "buffer" : 0,
            "byteLength" : 49596,
            "byteOffset" : 219776
        },
        {
            "buffer" : 0,
            "byteLength" : 49596,
            "byteOffset" : 269372
        },
        {
            "buffer" : 0,
            "byteLength" : 33064,
            "byteOffset" : 318968
        },
        {
            "buffer" : 0,
            "byteLength" : 47232,
            "byteOffset" : 352032
        },
        {
            "buffer" : 0,
            "byteLength" : 4920,
            "byteOffset" : 399264
        },
        {
            "buffer" : 0,
            "byteLength" : 4920,
            "byteOffset" : 404184
        },
        {
            "buffer" : 0,
            "byteLength" : 3280,
            "byteOffset" : 409104
        },
        {
            "buffer" : 0,
            "byteLength" : 2196,
            "byteOffset" : 412384
        },
        {
            "buffer" : 0,
            "byteLength" : 660,
            "byteOffset" : 414580
        },
        {
            "buffer" : 0,
            "byteLength" : 660,
            "byteOffset" : 415240
        },
        {
            "buffer" : 0,
            "byteLength" : 440,
            "byteOffset" : 415900
        },
        {
            "buffer" : 0,
            "byteLength" : 480,
            "byteOffset" : 416340
        }
    ],
    "buffers" : [
        {
            "byteLength" : 416820,
            "uri" : "data:application/octet-stream;base64,"
        }
    ]
}
